<?xml version="1.0" standalone="yes"?>
<svg xmlns="http://www.w3.org/2000/svg" width="50" height="50">
<path style="fill:#010101; stroke:none;" d="M0 0L0 50L50 50L50 0L0 0z"/>
<path style="fill:#3b4cbc; stroke:none;" d="M21 1L21 49L22 49L23 34L24 32L22 32L23 19L24 16L22 16L25 6L22 4L23 1L21 1z"/>
<path style="fill:#01b7ef; stroke:none;" d="M22 3L23 4L22 3M23 5L24 6L23 5M24 7L25 8L24 7M23 10L24 11L23 10M22.3333 14.6667L22.6667 15.3333L22.3333 14.6667M23 18L24 19L23 18M24 21L25 22L24 21M23 25L24 26L23 25M22.3333 30.6667L22.6667 31.3333L22.3333 30.6667M23 33L24 34L23 33M24.3333 38.6667L24.6667 39.3333L24.3333 38.6667M23.3333 43.6667L23.6667 44.3333L23.3333 43.6667M22 48L23 49L22 48z"/>
</svg>
